# xmcd
#
# Track frame offsets:
#	150
#	17476
#	33940
#	48574
#	68037
#	85692
#	106602
#	124045
#	141826
#	159392
#
# Disc length: 2341 seconds
#
# Revision: 2
# Processed by: cddbd v1.5.2PL0 Copyright (c) Steve Scherf et al.
# Submitted via: EasyCDDAExtractor 10.0.3.1
#
DISCID=7209230a
DTITLE=Стас Михайлов - Берега Мечты
DYEAR=2006
DGENRE=Chanson
TTITLE0=Берега Мечты
TTITLE1=Знай Об Этом
TTITLE2=Звездой на Небо
TTITLE3=Ïðîñòè
TTITLE4=Íå Âäâî¸ì
TTITLE5=Äàéòå Ìíå
TTITLE6=Æèâó È Òàþ
TTITLE7=Æäè
TTITLE8=Âñ¸ Äëÿ Òåáÿ
TTITLE9=Çà Âîðîòàìè Âðåìåíè
EXTD=
EXTT0=
EXTT1=
EXTT2=
EXTT3=
EXTT4=
EXTT5=
EXTT6=
EXTT7=
EXTT8=
EXTT9=
PLAYORDER=
